<svg width="1191" height="1171" viewBox="0 0 1191 1171" fill="none" xmlns="http://www.w3.org/2000/svg">
<path d="M1015.99 1168.81C942.031 1175.2 787.648 1146.7 761.82 981.542C729.534 775.088 759.386 745.85 640.12 713.508C520.854 681.165 439.715 797.222 283.975 625.851C128.234 454.479 396.126 267.676 258.135 230.021C120.144 192.366 151.602 336.844 59.3013 266.967C-14.5395 211.066 -3.49419 145.454 11.2586 119.636" stroke="#5C93B1" stroke-opacity="0.1"/>
<path d="M1028.21 1160.82C954.623 1166.93 800.878 1137.99 774.583 973.361C741.715 767.576 771.318 738.557 652.509 705.911C533.699 673.265 453.364 788.591 297.757 617.314C142.151 446.038 408.091 260.902 270.627 222.897C133.163 184.891 164.987 328.933 72.8783 258.992C-0.808415 203.04 9.94953 137.716 24.5393 112.049" stroke="#5C93B1" stroke-opacity="0.1"/>
<path d="M1041.25 1152.12C967.283 1158.52 812.9 1130.02 787.072 964.856C754.786 758.402 784.637 729.165 665.371 696.822C546.106 664.48 464.967 780.537 309.227 609.165C153.486 437.794 421.378 250.991 283.387 213.335C145.396 175.68 176.854 320.158 84.5531 250.282C10.7122 194.381 21.7576 128.769 36.5104 102.95" stroke="#5C93B1" stroke-opacity="0.1"/>
<path d="M1052.8 1143.38C979.218 1149.49 825.473 1120.55 799.178 955.921C766.31 750.137 795.913 721.117 677.104 688.471C558.294 655.826 477.959 771.152 322.353 599.875C166.746 428.598 432.687 243.462 295.222 205.457C157.758 167.452 189.582 311.493 97.4734 241.553C23.7866 185.6 34.5446 120.277 49.1344 94.6092" stroke="#5C93B1" stroke-opacity="0.1"/>
<path d="M1066.01 1134.53C992.248 1140.8 838.212 1112.11 812.182 947.249C779.645 741.176 809.373 712.048 690.359 679.581C571.344 647.113 490.6 762.796 334.979 591.532C179.358 420.268 446.266 234.289 308.565 196.49C170.864 158.691 202.476 302.917 110.297 233.038C36.5536 177.135 47.4648 111.678 62.1383 85.9372" stroke="#5C93B1" stroke-opacity="0.1"/>
<path d="M1078.47 1126.34C1004.5 1132.73 850.121 1104.24 824.293 939.074C792.007 732.62 821.858 703.382 702.592 671.04C583.327 638.698 502.188 754.755 346.448 583.383C190.707 412.011 458.599 225.208 320.608 187.553C182.616 149.898 214.075 294.376 121.774 224.5C47.9332 168.599 58.9785 102.986 73.7313 77.1678" stroke="#5C93B1" stroke-opacity="0.1"/>
<path d="M1090.68 1118.35C1017.08 1124.44 863.276 1095.43 836.917 930.733C803.968 724.857 833.57 695.835 714.714 663.136C595.858 630.437 515.538 745.781 359.827 574.384C204.116 402.987 470.072 217.869 332.554 179.802C195.036 141.735 226.919 285.844 134.759 215.844C61.0311 159.845 71.7699 94.4995 86.3553 68.8268" stroke="#5C93B1" stroke-opacity="0.1"/>
<path d="M1103.06 1108.9C1029.12 1115.32 874.792 1086.88 849.027 921.794C816.822 715.433 846.674 686.196 727.455 653.907C608.235 621.618 527.081 737.657 371.446 566.406C215.81 395.155 483.686 208.333 345.749 170.74C207.811 133.147 239.211 277.557 146.961 207.74C73.1615 151.886 84.226 86.2959 98.9832 60.4825" stroke="#5C93B1" stroke-opacity="0.1"/>
<path d="M1115.86 1100.41C1042.09 1106.67 888.059 1077.98 862.029 913.124C829.492 707.051 859.22 677.923 740.206 645.456C621.191 612.988 540.446 728.671 384.825 557.407C229.205 386.143 496.113 200.164 358.412 162.365C220.711 124.566 252.323 268.792 160.144 198.913C86.4005 143.01 97.3117 77.5527 111.985 51.8122" stroke="#5C93B1" stroke-opacity="0.1"/>
<path d="M1128.49 1092.06C1054.7 1098.3 900.609 1069.55 874.516 904.621C841.899 698.456 871.625 669.327 752.564 636.806C633.503 604.285 552.774 719.986 397.048 548.601C241.323 377.217 508.247 191.257 370.492 153.396C232.737 115.534 264.408 259.828 172.177 189.89C98.3931 133.94 109.285 68.4609 123.954 42.7153" stroke="#5C93B1" stroke-opacity="0.1"/>
<path d="M1140.28 1083.12C1066.34 1089.54 912.013 1061.1 886.248 896.012C854.043 689.65 883.895 660.414 764.676 628.125C645.456 595.836 564.302 711.875 408.667 540.624C253.031 369.373 520.907 182.551 382.97 144.958C245.032 107.364 276.432 251.775 184.182 181.958C110.382 126.104 121.447 60.5136 136.204 34.7002" stroke="#5C93B1" stroke-opacity="0.1"/>
<path d="M1153.15 1075.89C1079.55 1081.97 925.748 1052.97 899.389 888.265C866.441 682.389 896.043 653.368 777.187 620.669C658.331 587.969 578.011 703.313 422.3 531.916C266.589 360.519 532.545 175.402 395.027 137.334C257.508 99.2674 289.391 243.376 197.232 173.377C123.504 117.377 134.243 52.0318 148.828 26.3591" stroke="#5C93B1" stroke-opacity="0.1"/>
<path d="M1165.71 1066.28C1091.92 1072.52 937.83 1043.77 911.737 878.839C879.12 672.674 908.846 643.545 789.785 611.024C670.724 578.503 589.995 694.204 434.269 522.819C278.544 351.435 545.468 165.474 407.713 127.613C269.958 89.7521 301.629 234.045 209.398 164.108C135.614 108.157 146.506 42.6786 161.175 16.933" stroke="#5C93B1" stroke-opacity="0.1"/>
<path d="M1178.33 1057.94C1104.57 1064.2 950.532 1035.51 924.502 870.656C891.965 664.583 921.693 635.455 802.678 602.988C683.664 570.52 602.919 686.203 447.298 514.939C291.677 343.675 558.585 157.697 420.884 119.897C283.184 82.0979 314.796 226.324 222.616 156.445C148.873 100.542 159.784 35.085 174.458 9.34447" stroke="#5C93B1" stroke-opacity="0.1"/>
<path d="M1190.96 1049.6C1117.17 1055.84 963.082 1027.09 936.988 862.154C904.371 655.989 934.098 626.859 815.037 594.338C695.976 561.818 615.247 677.518 459.521 506.134C303.795 334.749 570.72 148.789 432.965 110.928C295.21 73.0667 326.881 217.36 234.65 147.422C160.866 91.4719 171.758 25.9931 186.427 0.247551" stroke="#5C93B1" stroke-opacity="0.1"/>
</svg>
