<svg width="1287" height="1036" viewBox="0 0 1287 1036" fill="none" xmlns="http://www.w3.org/2000/svg">
<path d="M0.498648 843.635C6.01059 769.599 58.8272 621.757 225.998 622.669C434.961 623.809 459.05 657.951 510.047 545.389C561.044 432.827 459.452 334.174 653.523 207.836C847.595 81.4983 989.164 375.817 1048.4 245.62C1107.63 115.422 959.983 123.375 1043.72 43.4329C1110.71 -20.5209 1173.71 0.873555 1196.84 19.565" stroke="#5C93B1" stroke-opacity="0.1"/>
<path d="M6.42741 856.969C12.1639 783.352 65.3162 636.21 232.033 636.576C440.429 637.034 464.342 670.897 515.566 558.834C566.789 446.77 465.79 349.028 659.747 222.807C853.703 96.586 993.938 388.712 1053.43 259.09C1112.93 129.469 965.652 137.853 1049.42 58.1107C1116.44 -5.68281 1179.2 15.3818 1202.21 33.8882" stroke="#5C93B1" stroke-opacity="0.1"/>
<path d="M12.9321 871.23C18.444 797.195 71.2606 649.352 238.431 650.264C447.395 651.404 471.484 685.547 522.481 572.985C573.477 460.423 471.885 361.77 665.957 235.432C860.029 109.094 1001.6 403.412 1060.83 273.215C1120.07 143.017 972.417 150.971 1056.15 71.0282C1123.14 7.07434 1186.15 28.4688 1209.27 47.1603" stroke="#5C93B1" stroke-opacity="0.1"/>
<path d="M19.7103 884.036C25.4468 810.42 78.5991 663.278 245.316 663.644C453.712 664.102 477.625 697.965 528.848 585.901C580.072 473.838 479.073 376.095 673.029 249.874C866.986 123.654 1007.22 415.779 1066.72 286.158C1126.21 156.536 978.935 164.92 1062.7 85.1782C1129.72 21.3847 1192.48 42.4493 1215.49 60.9558" stroke="#5C93B1" stroke-opacity="0.1"/>
<path d="M26.3349 898.491C31.9463 824.673 84.8947 677.203 251.797 677.867C460.425 678.698 484.425 712.702 535.505 600.408C586.585 488.114 485.3 389.909 679.246 263.672C873.193 137.435 1014.1 430.651 1073.44 300.763C1132.77 170.875 985.34 179.02 1069.06 99.1985C1136.04 35.3413 1198.91 56.5785 1221.97 75.1792" stroke="#5C93B1" stroke-opacity="0.1"/>
<path d="M32.4317 912.095C37.9436 838.06 90.7602 690.217 257.931 691.129C466.894 692.269 490.983 726.412 541.98 613.85C592.977 501.288 491.385 402.635 685.457 276.297C879.528 149.959 1021.1 444.278 1080.33 314.08C1139.57 183.883 991.916 191.836 1075.65 111.893C1142.64 47.9395 1205.65 69.334 1228.77 88.0255" stroke="#5C93B1" stroke-opacity="0.1"/>
<path d="M38.3605 925.429C44.1226 851.797 97.3468 704.61 264.146 704.925C472.646 705.318 496.561 739.18 547.844 627.08C599.128 514.979 498.108 417.248 692.201 290.943C886.293 164.638 1026.51 456.777 1086.07 327.112C1145.64 197.447 998.285 205.878 1082.12 126.095C1149.19 62.2688 1211.98 83.318 1234.99 101.821" stroke="#5C93B1" stroke-opacity="0.1"/>
<path d="M45.7146 939.163C51.2009 865.143 103.946 717.345 271.033 718.309C479.893 719.513 503.981 753.657 554.918 641.132C605.854 528.607 504.282 429.942 698.218 303.688C892.155 177.434 1033.74 471.74 1092.91 341.586C1152.08 211.432 1004.5 219.338 1088.17 139.437C1155.11 75.5159 1218.08 96.9257 1241.21 115.621" stroke="#5C93B1" stroke-opacity="0.1"/>
<path d="M52.0512 953.153C57.6626 879.335 110.611 731.865 277.513 732.53C486.141 733.361 510.142 767.365 561.222 655.07C612.302 542.776 511.016 444.572 704.963 318.335C898.909 192.098 1039.82 485.314 1099.15 355.426C1158.48 225.538 1011.06 233.683 1094.78 153.861C1161.75 90.0041 1224.62 111.241 1247.69 129.842" stroke="#5C93B1" stroke-opacity="0.1"/>
<path d="M58.2679 966.951C63.9049 893.117 116.925 745.602 283.91 746.216C492.642 746.983 516.644 780.985 567.784 668.653C618.924 556.322 517.618 458.13 711.7 331.809C905.783 205.487 1046.67 498.716 1106.07 368.785C1165.48 238.854 1017.97 247.046 1101.76 167.183C1168.79 103.293 1231.68 124.515 1254.75 143.112" stroke="#5C93B1" stroke-opacity="0.1"/>
<path d="M65.2142 980.028C70.7006 906.009 123.445 758.211 290.533 759.174C499.393 760.379 523.48 794.522 574.417 681.997C625.354 569.473 523.782 470.807 717.718 344.553C911.654 218.299 1053.24 512.605 1112.41 382.451C1171.57 252.297 1024 260.203 1107.67 180.302C1174.61 116.381 1237.58 137.791 1260.71 156.486" stroke="#5C93B1" stroke-opacity="0.1"/>
<path d="M70.2935 993.89C76.0556 920.257 129.28 773.071 296.079 773.385C504.579 773.778 528.494 807.641 579.777 695.54C631.061 583.439 530.041 485.709 724.134 359.404C918.226 233.099 1058.44 525.237 1118.01 395.573C1177.57 265.908 1030.22 274.339 1114.05 194.556C1181.12 130.729 1243.91 151.778 1266.92 170.281" stroke="#5C93B1" stroke-opacity="0.1"/>
<path d="M77.7675 1007.82C83.4046 933.982 136.425 786.468 303.41 787.081C512.142 787.848 536.143 821.85 587.284 709.519C638.424 597.187 537.118 498.996 731.2 372.674C925.282 246.353 1066.17 539.581 1125.57 409.65C1184.98 279.719 1037.47 287.911 1121.26 208.048C1188.29 144.158 1251.18 165.38 1274.25 183.977" stroke="#5C93B1" stroke-opacity="0.1"/>
<path d="M83.9842 1021.61C89.5957 947.796 142.544 800.326 309.446 800.991C518.074 801.822 542.075 835.825 593.155 723.531C644.235 611.237 542.949 513.033 736.896 386.795C930.842 260.558 1071.75 553.774 1131.09 423.886C1190.42 293.998 1042.99 302.143 1126.71 222.322C1193.69 158.465 1256.56 179.702 1279.62 198.303" stroke="#5C93B1" stroke-opacity="0.1"/>
<path d="M90.201 1035.41C95.838 961.578 148.858 814.063 315.844 814.676C524.575 815.443 548.577 849.445 599.717 737.114C650.857 624.782 549.551 526.591 743.634 400.269C937.716 273.948 1078.61 567.176 1138.01 437.245C1197.41 307.314 1049.91 315.506 1133.69 235.644C1200.72 171.753 1263.62 192.975 1286.69 211.572" stroke="#5C93B1" stroke-opacity="0.1"/>
</svg>
