<svg width="1406" height="888" viewBox="0 0 1406 888" fill="none" xmlns="http://www.w3.org/2000/svg">
<path d="M131.646 19.8677C200.343 -8.3036 356.219 -27.1563 430.148 122.803C522.558 310.253 502.785 347.069 626.285 342.363C749.785 337.656 792.617 202.662 992.412 319.792C1192.21 436.922 992.206 695.165 1135.17 689.944C1278.13 684.723 1204.99 556.189 1313.95 595.357C1401.12 626.691 1410.15 692.62 1403.77 721.668" stroke="#5C93B1" stroke-opacity="0.1"/>
<path d="M122.368 31.1335C190.791 3.35032 346.19 -14.8888 420.404 134.421C513.172 321.057 493.57 357.591 616.725 353.311C739.88 349.03 782.163 214.973 981.802 332.053C1181.44 449.132 982.805 705.201 1125.37 700.471C1267.93 695.742 1194.58 567.733 1303.37 607.02C1390.4 638.45 1399.62 704.017 1393.35 732.872" stroke="#5C93B1" stroke-opacity="0.1"/>
<path d="M112.518 43.329C181.215 15.1577 337.091 -3.69504 411.02 146.265C503.431 333.714 483.657 370.53 607.157 365.824C730.657 361.118 773.489 226.123 973.284 343.253C1173.08 460.383 973.078 718.626 1116.04 713.405C1259 708.184 1185.87 579.65 1294.82 618.818C1381.99 650.153 1391.02 716.081 1384.64 745.129" stroke="#5C93B1" stroke-opacity="0.1"/>
<path d="M104.092 55.1188C172.515 27.3356 327.914 9.09649 402.128 158.406C494.896 345.042 475.294 381.576 598.449 377.296C721.604 373.015 763.887 238.959 963.526 356.038C1163.16 473.118 964.529 729.186 1107.09 724.456C1249.65 719.727 1176.3 591.719 1285.09 631.006C1372.13 662.435 1381.35 728.002 1375.08 756.857" stroke="#5C93B1" stroke-opacity="0.1"/>
<path d="M94.1236 67.5078C162.671 39.5226 318.272 20.9546 392.302 170.563C484.839 357.575 465.151 394.249 588.448 389.737C711.746 385.225 754.313 250.706 953.962 367.769C1153.61 484.832 954.302 741.994 1097.03 736.997C1239.75 732 1166.55 603.752 1275.39 642.959C1362.47 674.325 1371.58 740.065 1365.25 769.015" stroke="#5C93B1" stroke-opacity="0.1"/>
<path d="M84.6788 79.0449C153.376 50.8736 309.252 32.0209 383.18 181.981C475.591 369.43 455.817 406.246 579.318 401.54C702.818 396.834 745.65 261.839 945.445 378.969C1145.24 496.099 945.238 754.342 1088.2 749.121C1231.16 743.9 1158.03 615.366 1266.98 654.534C1354.15 685.868 1363.18 751.797 1356.8 780.845" stroke="#5C93B1" stroke-opacity="0.1"/>
<path d="M75.4009 90.3107C143.849 62.5433 299.321 44.3486 373.618 193.709C466.489 380.409 446.888 416.944 570.104 412.701C693.32 408.457 735.582 274.388 935.357 391.551C1135.13 508.715 936.475 764.77 1079.11 760.084C1221.74 755.397 1148.31 627.342 1257.17 666.67C1344.26 698.132 1353.5 763.715 1347.24 792.573" stroke="#5C93B1" stroke-opacity="0.1"/>
<path d="M66.403 103.03C135.074 74.843 290.878 55.946 364.723 205.855C457.03 393.24 437.255 430.055 560.695 425.312C684.135 420.569 726.987 285.587 926.646 402.633C1126.31 519.68 926.324 777.935 1069.21 772.671C1212.11 767.407 1139.05 638.92 1247.94 678.047C1335.05 709.348 1344.06 775.262 1337.67 804.306" stroke="#5C93B1" stroke-opacity="0.1"/>
<path d="M56.7201 114.954C125.267 86.9692 280.869 68.4011 354.898 218.01C447.436 405.021 427.747 441.696 551.045 437.184C674.342 432.672 716.91 298.152 916.559 415.215C1116.21 532.278 916.899 789.44 1059.63 784.443C1202.35 779.447 1129.15 651.199 1237.99 690.406C1325.06 721.772 1334.17 787.512 1327.85 816.461" stroke="#5C93B1" stroke-opacity="0.1"/>
<path d="M47.1563 126.685C115.729 98.7156 271.403 80.1919 345.515 229.852C438.156 416.927 418.469 453.602 541.827 449.127C665.185 444.653 707.733 310.121 907.517 427.268C1107.3 544.414 907.973 801.563 1050.77 796.61C1193.57 791.656 1120.29 663.361 1229.19 702.609C1316.32 734.008 1325.46 799.763 1319.13 828.716" stroke="#5C93B1" stroke-opacity="0.1"/>
<path d="M38.5633 138.746C107.235 110.559 263.038 91.6619 336.884 241.57C429.191 428.956 409.416 465.771 532.856 461.028C656.295 456.284 699.148 321.302 898.807 438.349C1098.47 555.395 898.485 813.651 1041.38 808.387C1184.27 803.123 1111.21 674.635 1220.1 713.763C1307.21 745.064 1316.22 810.978 1309.83 840.022" stroke="#5C93B1" stroke-opacity="0.1"/>
<path d="M28.4335 149.488C96.882 121.72 252.353 103.526 326.65 252.886C419.522 439.587 399.921 476.121 523.137 471.878C646.352 467.635 688.615 333.565 888.39 450.729C1088.16 567.892 889.508 823.948 1032.14 819.261C1174.77 814.574 1101.34 686.519 1210.2 725.847C1297.29 757.309 1306.53 822.892 1300.27 851.75" stroke="#5C93B1" stroke-opacity="0.1"/>
<path d="M19.3167 162.401C87.8893 134.432 243.563 115.908 317.676 265.568C410.317 452.643 390.63 489.318 513.988 484.843C637.345 480.369 679.893 345.837 879.678 462.983C1079.46 580.13 880.134 837.279 1022.93 832.325C1165.73 827.372 1092.45 699.077 1201.35 738.325C1288.48 769.723 1297.62 835.479 1291.29 864.432" stroke="#5C93B1" stroke-opacity="0.1"/>
<path d="M9.75284 174.132C78.2998 146.146 233.901 127.578 307.931 277.187C400.468 464.198 380.78 500.873 504.077 496.361C627.375 491.849 669.942 357.33 869.591 474.393C1069.24 591.456 869.932 848.617 1012.66 843.621C1155.38 838.624 1082.18 710.376 1191.02 749.583C1278.09 780.949 1287.21 846.689 1280.88 875.639" stroke="#5C93B1" stroke-opacity="0.1"/>
<path d="M0.188896 185.862C68.7616 157.893 224.435 139.369 298.548 289.029C391.189 476.104 371.502 512.779 494.86 508.305C618.218 503.83 660.765 369.298 860.55 486.445C1060.33 603.591 861.006 860.74 1003.8 855.787C1146.6 850.833 1073.32 722.538 1182.23 761.786C1269.35 793.185 1278.49 858.94 1272.17 887.893" stroke="#5C93B1" stroke-opacity="0.1"/>
</svg>
