<svg width="631" height="909" viewBox="0 0 631 909" fill="none" xmlns="http://www.w3.org/2000/svg">
<path d="M9.50066 810.073C-6.25403 763.994 -12.4972 661.115 88.5677 618.226C214.899 564.615 238.227 578.945 239.978 497.814C241.729 416.683 155.03 383.59 239.527 256.974C324.025 130.358 485.26 271.057 487.436 177.151C489.611 83.2446 402.604 126.408 432.509 56.4405C456.433 0.466699 499.947 -3.00282 518.713 2.25914" stroke="#5C93B1" stroke-opacity="0.1"/>
<path d="M16.715 816.715C0.843815 770.531 -5.57576 667.461 95.7155 624.652C222.33 571.141 245.747 585.532 247.379 504.26C249.01 422.989 162.009 389.704 246.556 262.995C331.103 136.286 493.021 277.481 495.059 183.413C497.096 89.3438 409.904 132.449 439.787 62.4045C463.694 6.36878 507.329 2.9601 526.158 8.26023" stroke="#5C93B1" stroke-opacity="0.1"/>
<path d="M23.7575 823.238C8.14202 777.232 2.13903 674.453 103.051 631.379C229.191 577.537 252.431 591.803 254.355 510.737C256.279 429.67 169.864 396.794 254.432 270.099C339 143.405 499.534 283.634 501.91 189.801C504.285 95.9686 417.396 139.286 447.381 69.3118C471.369 13.3326 514.784 9.7708 533.493 14.9873" stroke="#5C93B1" stroke-opacity="0.1"/>
<path d="M31.7651 829.632C15.8826 783.465 9.43109 680.44 110.686 637.683C237.254 584.238 260.671 598.63 262.276 517.397C263.88 436.164 176.888 402.866 261.375 276.243C345.862 149.619 507.789 290.802 509.796 196.778C511.802 102.753 424.644 145.81 454.498 75.8078C478.381 19.8058 522.005 16.4128 540.831 21.7166" stroke="#5C93B1" stroke-opacity="0.1"/>
<path d="M39.2246 836.446C23.4699 790.368 17.2267 687.488 118.292 644.6C244.623 590.988 267.951 605.318 269.702 524.187C271.453 443.057 184.754 409.963 269.251 283.347C353.749 156.732 514.984 297.431 517.16 203.525C519.335 109.618 432.328 152.781 462.233 82.814C486.157 26.8402 529.671 23.3707 548.437 28.6326" stroke="#5C93B1" stroke-opacity="0.1"/>
<path d="M46.5613 843.174C30.818 797.08 24.6067 694.155 125.708 651.213C252.085 597.536 275.414 611.865 277.192 530.696C278.97 449.527 192.262 416.447 276.819 289.745C361.377 163.043 522.603 303.755 524.809 209.805C527.016 115.854 439.975 159.065 469.909 89.0558C493.856 33.0483 537.381 29.5631 556.151 34.8215" stroke="#5C93B1" stroke-opacity="0.1"/>
<path d="M54.1524 849.278C38.2698 803.11 31.8183 700.085 133.073 657.329C259.641 603.883 283.058 618.275 284.663 537.042C286.268 455.809 199.275 422.511 283.762 295.888C368.249 169.265 530.177 310.448 532.183 216.423C534.19 122.398 447.031 165.456 476.885 95.4531C500.768 39.451 544.392 36.0581 563.219 41.3618" stroke="#5C93B1" stroke-opacity="0.1"/>
<path d="M60.8182 856.34C45.2027 810.334 39.1997 707.555 140.112 664.481C266.251 610.638 289.491 624.905 291.416 543.838C293.34 462.771 206.925 429.896 291.493 303.201C376.061 176.506 536.595 316.735 538.97 222.903C541.346 129.07 454.457 172.387 484.441 102.413C508.429 46.4342 551.845 42.8724 570.554 48.089" stroke="#5C93B1" stroke-opacity="0.1"/>
<path d="M68.9485 862.819C53.2051 816.725 46.9939 713.8 148.095 670.858C274.472 617.181 297.801 631.51 299.579 550.341C301.357 469.172 214.649 436.092 299.206 309.39C383.764 182.688 544.99 323.4 547.196 229.45C549.403 135.499 462.362 178.71 492.296 108.701C516.244 52.6934 559.769 49.2082 578.538 54.4665" stroke="#5C93B1" stroke-opacity="0.1"/>
<path d="M76.2853 869.548C60.5306 823.469 54.2874 720.59 155.352 677.701C281.683 624.09 305.011 638.42 306.763 557.289C308.514 476.158 221.815 443.065 306.312 316.449C390.809 189.833 552.045 330.532 554.22 236.626C556.396 142.72 469.389 185.883 499.293 115.915C523.217 59.9417 566.731 56.4722 585.498 61.7341" stroke="#5C93B1" stroke-opacity="0.1"/>
<path d="M83.622 876.276C67.8786 830.181 61.6673 727.256 162.769 684.315C289.146 630.638 312.475 644.967 314.253 563.798C316.03 482.629 229.322 449.548 313.88 322.846C398.437 196.144 559.663 336.857 561.87 242.906C564.076 148.955 477.035 192.167 506.97 122.157C530.917 66.1498 574.442 62.6645 593.211 67.9229" stroke="#5C93B1" stroke-opacity="0.1"/>
<path d="M91.2129 882.379C75.3304 836.211 68.8789 733.187 170.133 690.43C296.702 636.985 320.119 651.377 321.723 570.143C323.328 488.91 236.336 455.613 320.823 328.989C405.31 202.366 567.237 343.549 569.244 249.525C571.25 155.5 484.091 198.557 513.946 128.555C537.829 72.5526 581.453 69.1596 600.279 74.4634" stroke="#5C93B1" stroke-opacity="0.1"/>
<path d="M98.6725 889.193C82.9178 843.115 76.6746 740.235 177.739 697.346C304.071 643.735 327.399 658.065 329.15 576.934C330.901 495.803 244.202 462.71 328.699 336.094C413.197 209.478 574.432 350.178 576.607 256.271C578.783 162.365 491.776 205.528 521.681 135.561C545.604 79.587 589.119 76.1175 607.885 81.3795" stroke="#5C93B1" stroke-opacity="0.1"/>
<path d="M106.386 895.382C90.6311 849.303 84.3879 746.424 185.453 703.535C311.784 649.924 335.112 664.254 336.863 583.123C338.614 501.992 251.915 468.899 336.413 342.283C420.91 215.667 582.145 356.367 584.321 262.46C586.496 168.554 499.489 211.717 529.394 141.75C553.318 85.7757 596.832 82.3062 615.598 87.5682" stroke="#5C93B1" stroke-opacity="0.1"/>
<path d="M113.346 902.649C97.6026 856.555 91.3913 753.63 192.493 710.688C318.87 657.011 342.199 671.34 343.976 590.171C345.754 509.002 259.046 475.922 343.604 349.22C428.161 222.518 589.387 363.23 591.594 269.28C593.8 175.329 506.759 218.54 536.694 148.531C560.641 92.5234 604.166 89.0382 622.935 94.2965" stroke="#5C93B1" stroke-opacity="0.1"/>
<path d="M121.059 908.838C105.316 862.743 99.1047 759.819 200.206 716.877C326.583 663.2 349.912 677.529 351.69 596.36C353.468 515.191 266.76 482.111 351.317 355.409C435.875 228.707 597.101 369.419 599.307 275.468C601.514 181.518 514.473 224.729 544.407 154.72C568.354 98.7122 611.88 95.227 630.649 100.485" stroke="#5C93B1" stroke-opacity="0.1"/>
</svg>
