<svg width="891" height="541" viewBox="0 0 891 541" fill="none" xmlns="http://www.w3.org/2000/svg">
<path d="M0.50037 407.83C12.4912 361.531 62.996 273.785 169.089 293.185C301.706 317.435 313.094 341.784 358.397 276.192C403.701 210.599 350.475 136.641 488.248 78.4271C626.022 20.2132 682.208 222.672 734.767 146.831C787.326 70.9897 692.616 59.4058 754.978 18.1716C804.867 -14.8157 842.438 5.83624 854.987 20.2856" stroke="#6CA3C0" stroke-opacity="0.1" stroke-linecap="round"/>
<path d="M2.15224 417.737C14.2363 371.673 64.893 284.308 170.848 303.361C303.292 327.176 314.615 351.362 360.025 286.038C405.435 220.714 352.423 147.293 490.204 89.0979C627.985 30.9031 683.666 232.093 736.349 156.562C789.032 81.031 694.432 69.725 756.831 28.5836C806.75 -4.32963 844.24 16.1214 856.746 30.4611" stroke="#6CA3C0" stroke-opacity="0.1" stroke-linecap="round"/>
<path d="M4.61399 426.801C16.6346 380.492 67.2232 292.712 173.413 312.074C306.15 336.275 317.54 360.624 362.913 295.004C408.286 229.383 355.037 155.435 492.968 97.1578C630.9 38.8811 687.062 241.349 739.702 165.476C792.342 89.6026 697.544 78.0538 759.983 36.7889C809.934 3.77703 847.533 24.4175 860.089 38.8643" stroke="#6CA3C0" stroke-opacity="0.1" stroke-linecap="round"/>
<path d="M8.2428 435.922C20.3268 389.858 70.9836 302.494 176.939 321.546C309.382 345.361 320.705 369.548 366.116 304.224C411.526 238.899 358.513 165.478 496.295 107.283C634.076 49.0885 689.757 250.279 742.44 174.748C795.122 99.2165 700.523 87.9105 762.921 46.769C812.84 13.8558 850.331 34.3069 862.836 48.6466" stroke="#6CA3C0" stroke-opacity="0.1" stroke-linecap="round"/>
<path d="M11.0978 445.975C23.0885 399.677 73.5934 311.931 179.687 331.331C312.303 355.581 323.691 379.93 368.995 314.337C414.298 248.745 361.072 174.787 498.846 116.573C636.619 58.3589 692.805 260.818 745.364 184.977C797.924 109.135 703.214 97.5515 765.575 56.3174C815.465 23.33 853.035 43.982 865.584 58.4314" stroke="#6CA3C0" stroke-opacity="0.1" stroke-linecap="round"/>
<path d="M13.6489 455.265C25.6098 408.978 76.031 321.266 182.028 340.704C314.524 365.001 325.91 389.352 371.144 323.787C416.377 258.222 363.174 184.255 500.79 126.103C638.406 67.9522 694.616 270.402 747.094 194.593C799.572 118.784 704.951 107.165 767.235 65.9613C817.063 32.9985 854.605 53.6619 867.147 68.114" stroke="#6CA3C0" stroke-opacity="0.1" stroke-linecap="round"/>
<path d="M15.8959 463.79C27.9502 417.738 78.5232 330.407 184.382 349.498C316.705 373.361 328.026 397.548 373.367 332.251C418.707 266.955 365.718 193.525 503.341 135.393C640.965 77.2605 696.67 278.441 749.271 202.942C801.873 127.443 707.362 116.102 769.683 74.9916C819.54 42.1029 857.002 62.5655 869.501 76.9078" stroke="#6CA3C0" stroke-opacity="0.1" stroke-linecap="round"/>
<path d="M18.751 473.843C30.712 427.557 81.1331 339.844 187.13 359.282C319.626 383.58 331.012 407.93 376.246 342.366C421.479 276.801 368.277 202.833 505.893 144.682C643.508 86.531 699.718 288.98 752.196 213.171C804.675 137.363 710.053 125.743 772.337 84.5401C822.165 51.5773 859.707 72.2407 872.249 86.6927" stroke="#6CA3C0" stroke-opacity="0.1" stroke-linecap="round"/>
<path d="M21.3913 483.357C33.4456 437.305 84.0186 349.974 189.877 369.065C322.2 392.928 333.522 417.115 378.862 351.819C424.202 286.522 371.213 213.092 508.837 154.96C646.46 96.8277 702.165 298.009 754.767 222.51C807.368 147.011 712.857 135.67 775.179 94.5588C825.036 61.6702 862.498 82.1327 874.996 96.475" stroke="#6CA3C0" stroke-opacity="0.1" stroke-linecap="round"/>
<path d="M23.9424 492.647C35.9966 446.595 86.5697 359.264 192.428 378.354C324.751 402.217 336.073 426.404 381.413 361.108C426.753 295.812 373.764 222.381 511.388 164.249C649.011 106.117 704.716 307.298 757.318 231.799C809.919 156.3 715.408 144.959 777.73 103.848C827.587 70.9595 865.049 91.422 877.547 105.764" stroke="#6CA3C0" stroke-opacity="0.1" stroke-linecap="round"/>
<path d="M25.4156 502.105C37.4064 455.807 87.9113 368.06 194.005 387.46C326.621 411.71 338.009 436.059 383.313 370.467C428.616 304.874 375.39 230.916 513.164 172.702C650.937 114.488 707.123 316.947 759.682 241.106C812.242 165.265 717.532 153.681 779.893 112.447C829.783 79.4594 867.353 100.111 879.902 114.561" stroke="#6CA3C0" stroke-opacity="0.1" stroke-linecap="round"/>
<path d="M28.056 511.619C40.14 465.555 90.7968 378.19 196.752 397.243C329.195 421.058 340.518 445.244 385.929 379.92C431.339 314.596 378.326 241.175 516.108 182.98C653.889 124.785 709.57 325.975 762.253 250.444C814.935 174.913 720.336 163.607 782.735 122.465C832.653 89.5523 870.144 110.003 882.649 124.343" stroke="#6CA3C0" stroke-opacity="0.1" stroke-linecap="round"/>
<path d="M30.911 521.672C42.9315 475.362 93.5201 387.582 199.71 406.944C332.447 431.146 343.836 455.494 389.21 389.874C434.583 324.254 381.334 250.305 519.265 192.028C657.197 133.751 713.359 336.22 765.999 260.346C818.639 184.473 723.841 172.924 786.28 131.659C836.231 98.6473 873.83 119.288 886.386 133.735" stroke="#6CA3C0" stroke-opacity="0.1" stroke-linecap="round"/>
<path d="M33.462 530.961C45.423 484.675 95.8442 396.962 201.841 416.4C334.337 440.698 345.723 465.048 390.957 399.483C436.19 333.918 382.988 259.951 520.604 201.8C658.22 143.649 714.429 346.098 766.907 270.289C819.386 194.48 724.764 182.861 787.048 141.658C836.876 108.695 874.418 129.358 886.96 143.81" stroke="#6CA3C0" stroke-opacity="0.1" stroke-linecap="round"/>
<path d="M36.0131 540.251C48.0039 493.952 98.5087 406.206 204.602 425.606C337.219 449.856 348.607 474.205 393.91 408.613C439.213 343.02 385.987 269.062 523.761 210.848C661.535 152.634 717.72 355.093 770.28 279.252C822.839 203.411 728.129 191.827 790.491 150.593C840.38 117.605 877.951 138.257 890.5 152.707" stroke="#6CA3C0" stroke-opacity="0.1" stroke-linecap="round"/>
</svg>
